<svg width="22" height="13" viewBox="0 0 22 13" fill="none" xmlns="http://www.w3.org/2000/svg">
<path d="M18.336 5.96101C18.2507 4.59335 17.7255 3.28992 16.8388 2.24514C15.9521 1.20037 14.7514 0.470249 13.4159 0.163681C12.0803 -0.142887 10.6814 -0.00946921 9.42781 0.544033C8.17425 1.09754 7.13322 2.04146 6.46001 3.235C5.79147 3.00588 5.08106 2.92504 4.37814 2.9981C3.67521 3.07115 2.99661 3.29635 2.38947 3.65805C1.78234 4.01975 1.26121 4.50928 0.862298 5.09264C0.463384 5.676 0.196242 6.33921 0.0794273 7.0362C-0.0373877 7.73319 -0.00107586 8.44726 0.185841 9.1288C0.372757 9.81035 0.705798 10.443 1.16183 10.9829C1.61786 11.5228 2.18596 11.9569 2.82666 12.2552C3.46735 12.5534 4.1653 12.7086 4.87201 12.71H13.339C13.4495 12.71 13.5554 12.6661 13.6335 12.588C13.7116 12.5099 13.7555 12.404 13.7555 12.2935C13.7555 12.183 13.7116 12.0771 13.6335 11.999C13.5554 11.9209 13.4495 11.877 13.339 11.877H4.87201C4.27077 11.8787 3.67675 11.7461 3.13333 11.4888C2.58991 11.2316 2.11081 10.8562 1.73102 10.3901C1.35123 9.924 1.08035 9.37896 0.938156 8.79478C0.795962 8.2106 0.786048 7.60204 0.909138 7.01354C1.03223 6.42503 1.28521 5.87146 1.64962 5.39323C2.01402 4.91501 2.48064 4.52423 3.01539 4.24941C3.55015 3.9746 4.13953 3.8227 4.7405 3.80481C5.34147 3.78692 5.93885 3.90349 6.48901 4.146C6.99463 4.36851 7.44944 4.69201 7.82552 5.09664C8.2016 5.50127 8.49102 5.97849 8.67601 6.499C8.69426 6.55055 8.72249 6.59799 8.75908 6.63863C8.79567 6.67926 8.8399 6.71229 8.88926 6.73583C8.93861 6.75937 8.99212 6.77296 9.04672 6.77582C9.10133 6.77868 9.15596 6.77076 9.20751 6.75251C9.25905 6.73425 9.3065 6.70602 9.34713 6.66943C9.38777 6.63284 9.4208 6.58861 9.44434 6.53926C9.46788 6.4899 9.48146 6.4364 9.48432 6.38179C9.48719 6.32719 9.47926 6.27255 9.46101 6.221C9.06228 5.09712 8.26677 4.15758 7.22401 3.57901C7.81763 2.55831 8.72285 1.75481 9.80676 1.28648C10.8907 0.818156 12.0962 0.709669 13.2463 0.976948C14.3964 1.24423 15.4305 1.87319 16.1969 2.7715C16.9632 3.66981 17.4213 4.79014 17.504 5.96801C17.0031 6.0315 16.523 6.20683 16.099 6.481C16.053 6.51068 16.0134 6.54912 15.9823 6.59413C15.9512 6.63914 15.9292 6.68984 15.9177 6.74332C15.9062 6.79681 15.9053 6.85204 15.9152 6.90586C15.925 6.95968 15.9453 7.01104 15.975 7.057C16.0047 7.10297 16.0431 7.14263 16.0881 7.17374C16.1331 7.20485 16.1838 7.22678 16.2373 7.2383C16.3453 7.26155 16.4582 7.24094 16.551 7.181C16.8846 6.96703 17.2633 6.83368 17.6574 6.7915C18.0514 6.74933 18.4498 6.79949 18.8211 6.93802C19.1924 7.07655 19.5263 7.29963 19.7964 7.5896C20.0665 7.87957 20.2653 8.22845 20.3772 8.60861C20.489 8.98877 20.5108 9.38975 20.4408 9.7798C20.3708 10.1698 20.211 10.5382 19.9739 10.8558C19.7368 11.1733 19.4291 11.4313 19.075 11.6092C18.7209 11.7872 18.3303 11.8802 17.934 11.881H16.669C16.5585 11.881 16.4526 11.9249 16.3745 12.003C16.2964 12.0811 16.2525 12.187 16.2525 12.2975C16.2525 12.408 16.2964 12.5139 16.3745 12.592C16.4526 12.6701 16.5585 12.714 16.669 12.714H17.933C18.7971 12.7156 19.6292 12.3866 20.2585 11.7945C20.8879 11.2024 21.267 10.392 21.3182 9.52934C21.3693 8.66672 21.0886 7.8172 20.5336 7.15487C19.9786 6.49254 19.1913 6.06756 18.333 5.967L18.336 5.96101Z" fill="#836EFF"/>
<path d="M15.003 12.706C15.2328 12.706 15.419 12.5197 15.419 12.29C15.419 12.0602 15.2328 11.874 15.003 11.874C14.7733 11.874 14.587 12.0602 14.587 12.29C14.587 12.5197 14.7733 12.706 15.003 12.706Z" fill="#836EFF"/>
</svg>
