<svg width="31" height="18" viewBox="0 0 31 18" fill="none" xmlns="http://www.w3.org/2000/svg">
<path d="M26.275 8.21697C26.1581 6.33126 25.4345 4.53391 24.2123 3.09317C22.9901 1.65244 21.3347 0.645578 19.4932 0.222871C17.6518 -0.199836 15.723 -0.0157226 13.9948 0.747727C12.2666 1.51118 10.8316 2.81303 9.90401 4.45897C8.98145 4.13788 7.99992 4.02202 7.02796 4.1195C6.05599 4.21697 5.11701 4.52543 4.27659 5.02333C3.43616 5.52123 2.71454 6.19657 2.16212 7.0022C1.60969 7.80783 1.23977 8.72434 1.07818 9.68773C0.916598 10.6511 0.967243 11.6382 1.22658 12.5799C1.48592 13.5217 1.9477 14.3956 2.57968 15.1404C3.21166 15.8853 3.99861 16.4832 4.88559 16.8925C5.77256 17.3018 6.73817 17.5125 7.71501 17.51H19.386C19.5382 17.51 19.6842 17.4495 19.7919 17.3419C19.8995 17.2342 19.96 17.0882 19.96 16.936C19.96 16.7837 19.8995 16.6377 19.7919 16.5301C19.6842 16.4224 19.5382 16.362 19.386 16.362H7.71501C6.88573 16.3653 6.06619 16.1833 5.31632 15.8292C4.56645 15.475 3.90523 14.9577 3.38102 14.3152C2.8568 13.6726 2.48286 12.9209 2.28654 12.1152C2.09021 11.3095 2.07648 10.4701 2.24633 9.6584C2.41619 8.8467 2.76534 8.08322 3.26824 7.42383C3.77115 6.76443 4.41509 6.2258 5.15297 5.84731C5.89085 5.46882 6.704 5.26007 7.53295 5.23631C8.36189 5.21254 9.18567 5.37438 9.94401 5.70997V5.70997C10.641 6.01659 11.268 6.46242 11.7864 7.02009C12.3049 7.57777 12.7039 8.23552 12.959 8.95297C12.9831 9.02539 13.0214 9.09228 13.0716 9.14973C13.1218 9.20718 13.183 9.25404 13.2515 9.28756C13.3201 9.32109 13.3946 9.3406 13.4708 9.34498C13.547 9.34935 13.6233 9.33848 13.6952 9.31302C13.7672 9.28756 13.8333 9.248 13.8898 9.19668C13.9463 9.14535 13.9919 9.08328 14.0241 9.01409C14.0563 8.9449 14.0744 8.86999 14.0773 8.79373C14.0802 8.71748 14.0679 8.64141 14.041 8.56997C13.4906 7.02265 12.3943 5.72941 10.958 4.93298C11.7766 3.5268 13.0242 2.42 14.518 1.77497C16.0117 1.12994 17.6729 0.980652 19.2577 1.349C20.8425 1.71736 22.2676 2.58396 23.3237 3.82164C24.3799 5.05933 25.0115 6.60295 25.126 8.22598C24.4355 8.31341 23.7735 8.55504 23.189 8.93298C23.1242 8.97316 23.068 9.02587 23.0237 9.08803C22.9795 9.15019 22.948 9.22055 22.9313 9.29499C22.9146 9.36943 22.9128 9.44646 22.9262 9.52158C22.9396 9.59669 22.9678 9.66839 23.0092 9.73247C23.0506 9.79655 23.1044 9.85174 23.1674 9.89479C23.2304 9.93785 23.3013 9.96791 23.3761 9.98323C23.4508 9.99855 23.5279 9.99881 23.6027 9.984C23.6776 9.96919 23.7487 9.9396 23.812 9.89697C24.2716 9.6004 24.794 9.41508 25.3378 9.35574C25.8816 9.2964 26.4317 9.36466 26.9444 9.55512C27.4572 9.74557 27.9184 10.053 28.2916 10.4529C28.6648 10.8528 28.9396 11.3342 29.0941 11.8589C29.2487 12.3836 29.2787 12.9371 29.182 13.4755C29.0852 14.0138 28.8642 14.5222 28.5365 14.9602C28.2089 15.3982 27.7837 15.7538 27.2946 15.9987C26.8055 16.2436 26.266 16.371 25.719 16.371H23.976C23.8238 16.371 23.6778 16.4314 23.5701 16.5391C23.4625 16.6467 23.402 16.7927 23.402 16.945C23.402 17.0972 23.4625 17.2432 23.5701 17.3509C23.6778 17.4585 23.8238 17.519 23.976 17.519H25.718C26.9092 17.5219 28.0565 17.0692 28.9246 16.2535C29.7927 15.4378 30.316 14.321 30.3873 13.1319C30.4585 11.9429 30.0722 10.7716 29.3076 9.85811C28.5431 8.94466 27.4581 8.35822 26.275 8.21898V8.21697Z" fill="#BDBCE1"/>
<path d="M21.6811 17.5149C21.9981 17.5149 22.2551 17.258 22.2551 16.9409C22.2551 16.6239 21.9981 16.3669 21.6811 16.3669C21.364 16.3669 21.1071 16.6239 21.1071 16.9409C21.1071 17.258 21.364 17.5149 21.6811 17.5149Z" fill="#BDBCE1"/>
</svg>
