<svg width="29" height="25" viewBox="0 0 29 25" fill="none" xmlns="http://www.w3.org/2000/svg">
<path d="M24.6021 8.00401C24.4886 6.16725 23.7841 4.41645 22.5938 3.013C21.4035 1.60955 19.7911 0.628738 17.9975 0.217008C16.2039 -0.194722 14.3252 -0.0152887 12.642 0.728521C10.9587 1.47233 9.5612 2.74061 8.65806 4.34401C7.76051 4.03595 6.80665 3.92703 5.86276 4.02482C4.91887 4.1226 4.00759 4.42474 3.19225 4.91024C2.37691 5.39575 1.67707 6.05297 1.14136 6.83624C0.605652 7.6195 0.246924 8.51003 0.0901077 9.44592C-0.0667089 10.3818 -0.017853 11.3406 0.23328 12.2557C0.484413 13.1709 0.9318 14.0203 1.54435 14.7451C2.1569 15.4698 2.91992 16.0525 3.78038 16.4526C4.64085 16.8527 5.57812 17.0607 6.52706 17.062H10.1561L9.98006 17.304C9.91935 17.3874 9.8829 17.486 9.87474 17.5888C9.86658 17.6916 9.88702 17.7947 9.93381 17.8866C9.9806 17.9785 10.0519 18.0557 10.1398 18.1096C10.2278 18.1635 10.3289 18.192 10.4321 18.192H13.5791L11.6681 23.379C11.622 23.5055 11.623 23.6443 11.6711 23.77C11.7191 23.8958 11.8109 23.9999 11.9296 24.0634C12.0483 24.1269 12.1859 24.1454 12.3171 24.1156C12.4484 24.0858 12.5645 24.0096 12.6441 23.901L17.6241 17.062H20.4441C20.5923 17.062 20.7345 17.0031 20.8393 16.8983C20.9442 16.7935 21.0031 16.6513 21.0031 16.503C21.0031 16.3548 20.9442 16.2126 20.8393 16.1077C20.7345 16.0029 20.5923 15.944 20.4441 15.944H18.4381L18.6151 15.702C18.6758 15.6186 18.7122 15.5201 18.7204 15.4173C18.7285 15.3144 18.7081 15.2114 18.6613 15.1194C18.6145 15.0275 18.5432 14.9503 18.4553 14.8964C18.3673 14.8425 18.2662 14.814 18.1631 14.814H15.0031L16.9261 9.62801C16.9727 9.50146 16.9721 9.3623 16.9242 9.23619C16.8764 9.11008 16.7845 9.00553 16.6656 8.94182C16.5467 8.87811 16.4088 8.85953 16.2773 8.88953C16.1458 8.91952 16.0296 8.99606 15.9501 9.10502L10.9701 15.944H6.52706C-0.593942 15.815 -0.592942 5.23501 6.52706 5.10801C7.64631 5.1118 8.73717 5.46066 9.65091 6.10705C10.5647 6.75343 11.2568 7.66589 11.6331 8.72002C11.6847 8.85666 11.7879 8.96764 11.9204 9.02919C12.0529 9.09075 12.2042 9.09799 12.3419 9.04937C12.4797 9.00075 12.593 8.90012 12.6575 8.76904C12.722 8.63796 12.7326 8.48683 12.6871 8.34802C12.1517 6.84147 11.085 5.58205 9.68706 4.80602C10.4842 3.43617 11.6994 2.3579 13.1543 1.72946C14.6093 1.10101 16.2274 0.955487 17.7712 1.31424C19.3149 1.67299 20.703 2.51714 21.7318 3.72277C22.7605 4.92841 23.3757 6.43205 23.4871 8.01302C22.8143 8.09823 22.1694 8.33371 21.6001 8.70202C21.4755 8.78251 21.3881 8.90917 21.357 9.05414C21.3258 9.1991 21.3536 9.3505 21.4341 9.47501C21.5146 9.59953 21.6412 9.68698 21.7862 9.71811C21.9311 9.74924 22.0825 9.72151 22.2071 9.64102C26.8541 6.98602 29.9481 14.441 24.8001 15.867C24.7273 15.8817 24.6583 15.9107 24.5969 15.9523C24.5355 15.9939 24.483 16.0474 24.4424 16.1095C24.4019 16.1716 24.3741 16.2412 24.3607 16.3142C24.3474 16.3871 24.3486 16.462 24.3645 16.5345C24.3804 16.607 24.4105 16.6756 24.4531 16.7363C24.4958 16.797 24.55 16.8486 24.6128 16.8881C24.6756 16.9276 24.7456 16.9542 24.8188 16.9664C24.892 16.9786 24.9669 16.9761 25.0391 16.959C26.0877 16.7289 27.021 16.135 27.6736 15.2824C28.3261 14.4299 28.6557 13.3739 28.6039 12.3015C28.5522 11.2292 28.1224 10.2098 27.3908 9.42406C26.6592 8.63834 25.673 8.13703 24.6071 8.00902L24.6021 8.00401ZM14.4711 13.032L13.6711 15.175C13.6398 15.2595 13.6294 15.3503 13.6408 15.4397C13.6522 15.5291 13.685 15.6144 13.7365 15.6883C13.7879 15.7623 13.8565 15.8227 13.9364 15.8644C14.0162 15.9062 14.105 15.928 14.1951 15.928H17.0591L14.1001 19.991L14.9001 17.823C14.9311 17.7386 14.9413 17.6479 14.9299 17.5586C14.9184 17.4694 14.8855 17.3843 14.8341 17.3104C14.7826 17.2366 14.7141 17.1763 14.6344 17.1346C14.5547 17.0929 14.466 17.0711 14.3761 17.071H11.5301L14.4711 13.032Z" fill="#BDBCE1"/>
<path d="M22.6801 17.059C22.9888 17.059 23.2391 16.8088 23.2391 16.5C23.2391 16.1913 22.9888 15.941 22.6801 15.941C22.3714 15.941 22.1211 16.1913 22.1211 16.5C22.1211 16.8088 22.3714 17.059 22.6801 17.059Z" fill="#BDBCE1"/>
<path d="M6.39409 18.447C6.34439 18.3644 6.27416 18.296 6.19023 18.2486C6.10629 18.2011 6.01151 18.1761 5.91509 18.1761C5.81867 18.1761 5.72389 18.2011 5.63995 18.2486C5.55602 18.296 5.48579 18.3644 5.43609 18.447L4.45909 20.074C4.30365 20.3319 4.2195 20.6265 4.21526 20.9276C4.21101 21.2286 4.28682 21.5255 4.43492 21.7877C4.58303 22.0498 4.79811 22.268 5.05818 22.4198C5.31824 22.5716 5.61397 22.6515 5.91509 22.6515C6.21622 22.6515 6.51193 22.5716 6.772 22.4198C7.03207 22.268 7.24715 22.0498 7.39526 21.7877C7.54336 21.5255 7.61917 21.2286 7.61492 20.9276C7.61068 20.6265 7.52653 20.3319 7.37109 20.074L6.39409 18.447ZM6.42009 21.234C6.38511 21.306 6.33561 21.37 6.27471 21.422C6.21381 21.474 6.14283 21.5128 6.06621 21.5361C5.98959 21.5594 5.90899 21.5665 5.82947 21.5572C5.74995 21.5478 5.67323 21.5221 5.60411 21.4816C5.535 21.4412 5.47498 21.3869 5.42784 21.3222C5.3807 21.2575 5.34745 21.1837 5.33017 21.1055C5.31289 21.0273 5.31196 20.9464 5.32743 20.8679C5.34291 20.7893 5.37445 20.7148 5.42009 20.649L5.92009 19.82L6.42009 20.649C6.47295 20.7374 6.50086 20.8385 6.50086 20.9415C6.50086 21.0445 6.47295 21.1456 6.42009 21.234Z" fill="#BDBCE1"/>
<path d="M23.159 18.447C23.1093 18.3644 23.0391 18.296 22.9551 18.2486C22.8712 18.2011 22.7764 18.1761 22.68 18.1761C22.5836 18.1761 22.4888 18.2011 22.4049 18.2486C22.3209 18.296 22.2507 18.3644 22.201 18.447L21.224 20.074C21.0685 20.3319 20.9844 20.6265 20.9801 20.9276C20.9759 21.2286 21.0517 21.5255 21.1998 21.7877C21.3479 22.0498 21.563 22.268 21.8231 22.4198C22.0831 22.5716 22.3789 22.6515 22.68 22.6515C22.9811 22.6515 23.2768 22.5716 23.5369 22.4198C23.797 22.268 24.012 22.0498 24.1601 21.7877C24.3082 21.5255 24.3841 21.2286 24.3798 20.9276C24.3756 20.6265 24.2914 20.3319 24.136 20.074L23.159 18.447ZM23.185 21.234C23.15 21.306 23.1005 21.37 23.0396 21.422C22.9787 21.474 22.9077 21.5128 22.8311 21.5361C22.7545 21.5594 22.6739 21.5665 22.5943 21.5572C22.5148 21.5478 22.4381 21.5221 22.369 21.4816C22.2999 21.4412 22.2399 21.3869 22.1927 21.3222C22.1456 21.2575 22.1124 21.1837 22.0951 21.1055C22.0778 21.0273 22.0769 20.9464 22.0923 20.8679C22.1078 20.7893 22.1393 20.7148 22.185 20.649L22.685 19.82L23.185 20.649C23.2378 20.7374 23.2658 20.8385 23.2658 20.9415C23.2658 21.0445 23.2378 21.1456 23.185 21.234Z" fill="#BDBCE1"/>
</svg>
