<svg width="21" height="24" viewBox="0 0 21 24" fill="none" xmlns="http://www.w3.org/2000/svg">
<path d="M13.854 16.056C16.285 12.241 15.979 12.717 16.054 12.618C16.8357 11.5135 17.298 10.2149 17.3902 8.86492C17.4823 7.51489 17.2008 6.16558 16.5765 4.96506C15.9521 3.76455 15.0091 2.75924 13.8509 2.05949C12.6927 1.35975 11.3641 0.992601 10.011 0.998358C8.6578 1.00411 7.33239 1.38255 6.18019 2.09213C5.028 2.80171 4.09357 3.815 3.47945 5.02078C2.86533 6.22657 2.59528 7.57823 2.69893 8.92742C2.80257 10.2766 3.27592 11.5712 4.067 12.669L6.224 16.053C3.92 16.411 0 17.462 0 19.792C0 20.64 0.552999 21.847 3.189 22.792C5.40105 23.5063 7.71583 23.8506 10.04 23.811C14.86 23.811 20.08 22.451 20.08 19.795C20.079 17.462 16.164 16.412 13.854 16.056ZM5.187 11.936L5.164 11.902C4.51382 11.0059 4.12314 9.94804 4.03487 8.84446C3.9466 7.74089 4.16415 6.63434 4.66364 5.64632C5.16313 4.65831 5.92523 3.82705 6.86625 3.24383C7.80727 2.66061 8.89082 2.348 9.99789 2.34032C11.105 2.33263 12.1927 2.63018 13.1418 3.20028C14.0908 3.77039 14.8644 4.59099 15.3775 5.57198C15.8907 6.55297 16.1235 7.6564 16.0506 8.76109C15.9777 9.86578 15.6017 10.929 14.964 11.834C14.9 11.919 15.236 11.396 10.04 19.55L5.187 11.936ZM10.04 22.469C4.775 22.469 1.34 20.921 1.34 19.792C1.34 19.033 3.106 17.784 7.018 17.298L9.477 21.156C9.53742 21.251 9.62082 21.3292 9.7195 21.3834C9.81817 21.4376 9.92893 21.466 10.0415 21.466C10.1541 21.466 10.2648 21.4376 10.3635 21.3834C10.4622 21.3292 10.5456 21.251 10.606 21.156L13.065 17.298C16.977 17.785 18.743 19.033 18.743 19.792C18.741 20.912 15.336 22.469 10.04 22.469Z" fill="#2C2C2C"/>
<path d="M10.04 5.022C9.37802 5.022 8.73091 5.2183 8.18049 5.58607C7.63008 5.95385 7.20109 6.47658 6.94777 7.08817C6.69444 7.69975 6.62816 8.37272 6.75731 9.02197C6.88645 9.67123 7.20522 10.2676 7.67331 10.7357C8.14139 11.2038 8.73777 11.5226 9.38702 11.6517C10.0363 11.7808 10.7092 11.7146 11.3208 11.4612C11.9324 11.2079 12.4551 10.7789 12.8229 10.2285C13.1907 9.67809 13.387 9.03098 13.387 8.369C13.387 7.48132 13.0344 6.63 12.4067 6.00232C11.779 5.37464 10.9277 5.022 10.04 5.022ZM10.04 10.376C9.64285 10.376 9.25462 10.2582 8.92441 10.0376C8.59419 9.81696 8.33682 9.50334 8.18484 9.13643C8.03286 8.76951 7.99309 8.36578 8.07057 7.97626C8.14805 7.58675 8.33929 7.22896 8.62012 6.94814C8.90094 6.66731 9.25874 6.47607 9.64825 6.39859C10.0378 6.32111 10.4415 6.36087 10.8084 6.51286C11.1753 6.66484 11.4889 6.9222 11.7096 7.25242C11.9302 7.58263 12.048 7.97086 12.048 8.368C12.048 8.6317 11.9961 8.89281 11.8951 9.13643C11.7942 9.38005 11.6463 9.60141 11.4599 9.78787C11.2734 9.97433 11.052 10.1222 10.8084 10.2232C10.5648 10.3241 10.3037 10.376 10.04 10.376Z" fill="#2C2C2C"/>
</svg>
