<svg width="28" height="31" viewBox="0 0 28 31" fill="none" xmlns="http://www.w3.org/2000/svg">
<path d="M22.209 15.778C22.161 15.105 22.0245 14.4413 21.803 13.804C22.5784 13.2632 23.2045 12.5351 23.6231 11.6875C24.0418 10.84 24.2395 9.9003 24.1977 8.95588C24.156 8.01145 23.8762 7.09289 23.3844 6.28553C22.8926 5.47818 22.2048 4.80822 21.3847 4.3379C20.5647 3.86758 19.639 3.61216 18.6938 3.59537C17.7486 3.57857 16.8145 3.80095 15.9783 4.24184C15.142 4.68273 14.4308 5.32783 13.9106 6.1172C13.3905 6.90658 13.0783 7.81462 13.003 8.75697C11.9223 8.97002 10.8996 9.41184 10.0038 10.0528C9.10792 10.6937 8.35958 11.5189 7.809 12.473C6.99192 12.203 6.12597 12.1137 5.27101 12.2112C4.41604 12.3087 3.59243 12.5907 2.8571 13.0377C2.12178 13.4846 1.49226 14.0859 1.01207 14.8C0.531868 15.5141 0.212438 16.3239 0.0758476 17.1735C-0.0607425 18.0231 -0.0112337 18.8922 0.220951 19.7208C0.453136 20.5494 0.86246 21.3177 1.42064 21.9726C1.97882 22.6275 2.67254 23.1534 3.45387 23.514C4.23519 23.8746 5.08549 24.0612 5.946 24.061H16.209C16.3561 24.045 16.492 23.9753 16.5908 23.8652C16.6896 23.7551 16.7443 23.6124 16.7443 23.4645C16.7443 23.3165 16.6896 23.1738 16.5908 23.0637C16.492 22.9536 16.3561 22.8839 16.209 22.868H5.95C-0.293001 22.755 -0.292001 13.479 5.95 13.368C6.93136 13.3713 7.88781 13.6772 8.68899 14.244C9.49016 14.8107 10.0971 15.6107 10.427 16.535C10.4906 16.6694 10.6019 16.7755 10.7392 16.8326C10.8766 16.8896 11.0303 16.8936 11.1704 16.8438C11.3106 16.794 11.4272 16.6939 11.4977 16.5629C11.5682 16.4319 11.5876 16.2794 11.552 16.135C11.076 14.7974 10.139 13.6731 8.909 12.964C9.62141 11.7813 10.6902 10.8547 11.962 10.3172C13.2338 9.77971 14.6431 9.65897 15.9878 9.97231C17.3325 10.2857 18.5433 11.017 19.4465 12.0613C20.3497 13.1056 20.8988 14.4092 21.015 15.785C20.4315 15.872 19.8734 16.0827 19.378 16.403C19.3019 16.4403 19.2346 16.4934 19.1805 16.5587C19.1264 16.624 19.0868 16.7 19.0642 16.7817C19.0416 16.8634 19.0366 16.949 19.0495 17.0328C19.0624 17.1165 19.0929 17.1967 19.139 17.2678C19.1851 17.3389 19.2457 17.3995 19.317 17.4455C19.3882 17.4915 19.4683 17.5219 19.5521 17.5347C19.6359 17.5474 19.7215 17.5423 19.8032 17.5196C19.8849 17.4969 19.9608 17.4572 20.026 17.403C25.026 14.916 26.656 23.253 20.981 22.866C20.8972 22.8569 20.8125 22.8655 20.7323 22.8914C20.6521 22.9172 20.5783 22.9596 20.5156 23.0159C20.4528 23.0722 20.4027 23.141 20.3684 23.218C20.334 23.2949 20.3163 23.3782 20.3163 23.4625C20.3163 23.5467 20.334 23.63 20.3684 23.707C20.4027 23.7839 20.4528 23.8528 20.5156 23.909C20.5783 23.9653 20.6521 24.0077 20.7323 24.0336C20.8125 24.0594 20.8972 24.0681 20.981 24.059H21.635C22.6888 24.0593 23.7034 23.6599 24.4741 22.9413C25.2448 22.2226 25.7141 21.2384 25.7874 20.1872C25.8606 19.136 25.5323 18.0961 24.8687 17.2776C24.2051 16.459 23.2556 15.9227 22.212 15.777L22.209 15.778ZM14.509 8.60897C14.4137 8.60897 14.3187 8.60897 14.224 8.60897C14.3207 7.89152 14.5923 7.20886 15.015 6.62111C15.4376 6.03336 15.9983 5.55856 16.6477 5.23852C17.297 4.91848 18.0151 4.76303 18.7387 4.78586C19.4622 4.80869 20.1691 5.0091 20.797 5.36943C21.4249 5.72977 21.9545 6.23897 22.3393 6.85219C22.724 7.46542 22.9521 8.16384 23.0034 8.88596C23.0546 9.60808 22.9275 10.3317 22.6333 10.9932C22.339 11.6546 21.8867 12.2335 21.316 12.679C20.6546 11.4491 19.6726 10.4213 18.4741 9.70473C17.2756 8.98813 15.9054 8.60948 14.509 8.60897Z" fill="#BDBCE1"/>
<path d="M18.595 24.062C18.9248 24.062 19.192 23.7947 19.192 23.465C19.192 23.1353 18.9248 22.868 18.595 22.868C18.2653 22.868 17.998 23.1353 17.998 23.465C17.998 23.7947 18.2653 24.062 18.595 24.062Z" fill="#BDBCE1"/>
<path d="M15.9709 2.21296C16.0267 2.34994 16.1311 2.46148 16.2642 2.52618C16.3972 2.59088 16.5494 2.60418 16.6916 2.56351C16.8338 2.52284 16.956 2.43109 17.0347 2.30585C17.1133 2.18061 17.143 2.03072 17.1179 1.88496L16.7179 0.497957C16.7037 0.414914 16.6721 0.335809 16.6252 0.265795C16.5783 0.195781 16.5172 0.136426 16.4458 0.0915969C16.3745 0.0467676 16.2945 0.0174685 16.2111 0.00560771C16.1277 -0.00625309 16.0427 -0.000409687 15.9617 0.0227574C15.8806 0.0459245 15.8054 0.0858958 15.7409 0.140068C15.6763 0.194241 15.6239 0.2614 15.5871 0.337172C15.5502 0.412945 15.5297 0.495631 15.5269 0.579847C15.5242 0.664062 15.5392 0.747919 15.5709 0.825957L15.9709 2.21296Z" fill="#BDBCE1"/>
<path d="M10.534 5.41496L11.797 6.11496C11.8658 6.1636 11.9441 6.19722 12.0268 6.21359C12.1094 6.22996 12.1946 6.22873 12.2768 6.20998C12.359 6.19123 12.4363 6.15538 12.5037 6.10477C12.571 6.05416 12.627 5.98992 12.6679 5.91623C12.7088 5.84255 12.7337 5.76106 12.7411 5.6771C12.7484 5.59314 12.7379 5.50859 12.7104 5.42894C12.6828 5.34928 12.6388 5.27633 12.5812 5.21482C12.5236 5.15332 12.4537 5.10464 12.376 5.07196L11.113 4.37196C11.0442 4.32331 10.9659 4.28971 10.8832 4.27333C10.8005 4.25696 10.7153 4.25819 10.6332 4.27693C10.551 4.29568 10.4737 4.33153 10.4063 4.38214C10.3389 4.43276 10.2829 4.497 10.242 4.57068C10.2011 4.64437 10.1762 4.72585 10.1689 4.80981C10.1616 4.89377 10.172 4.97833 10.1996 5.05798C10.2271 5.13763 10.2711 5.21058 10.3287 5.27209C10.3864 5.3336 10.4563 5.38228 10.534 5.41496Z" fill="#BDBCE1"/>
<path d="M26.655 12.996L25.392 12.296C25.3232 12.2473 25.2449 12.2137 25.1622 12.1973C25.0796 12.181 24.9944 12.1822 24.9122 12.2009C24.83 12.2197 24.7527 12.2555 24.6853 12.3062C24.618 12.3568 24.562 12.421 24.5211 12.4947C24.4802 12.5684 24.4553 12.6499 24.4479 12.7338C24.4406 12.8178 24.4511 12.9023 24.4786 12.982C24.5062 13.0616 24.5502 13.1346 24.6078 13.1961C24.6654 13.2576 24.7353 13.3063 24.813 13.339L26.076 14.039C26.1448 14.0876 26.2232 14.1212 26.3058 14.1376C26.3885 14.154 26.4737 14.1527 26.5559 14.134C26.638 14.1152 26.7153 14.0794 26.7827 14.0288C26.8501 13.9782 26.9061 13.9139 26.947 13.8402C26.9879 13.7666 27.0128 13.6851 27.0201 13.6011C27.0274 13.5172 27.017 13.4326 26.9894 13.353C26.9619 13.2733 26.9179 13.2003 26.8603 13.1388C26.8027 13.0773 26.7327 13.0287 26.655 12.996Z" fill="#BDBCE1"/>
<path d="M27.711 6.59595C27.6666 6.44435 27.5642 6.31639 27.426 6.23982C27.2879 6.16324 27.125 6.14425 26.973 6.18695L25.586 6.58695C25.5029 6.60122 25.4238 6.63284 25.3538 6.67972C25.2838 6.7266 25.2244 6.78771 25.1796 6.85906C25.1348 6.9304 25.1055 7.01039 25.0936 7.09381C25.0818 7.17723 25.0876 7.26223 25.1108 7.34324C25.1339 7.42425 25.1739 7.49948 25.2281 7.56402C25.2823 7.62856 25.3494 7.68096 25.4252 7.71782C25.501 7.75468 25.5837 7.77517 25.6679 7.77795C25.7521 7.78073 25.8359 7.76573 25.914 7.73395L27.301 7.33395C27.4527 7.28975 27.581 7.18745 27.6577 7.04926C27.7345 6.91107 27.7536 6.74817 27.711 6.59595Z" fill="#BDBCE1"/>
<path d="M21.916 3.21895C22.0545 3.29478 22.2173 3.31295 22.3691 3.26952C22.5209 3.22609 22.6495 3.12456 22.7269 2.98695L23.4269 1.72395C23.4843 1.58765 23.4893 1.43497 23.441 1.29522C23.3926 1.15546 23.2944 1.03848 23.1651 0.966709C23.0358 0.894938 22.8846 0.873437 22.7404 0.906332C22.5963 0.939228 22.4693 1.0242 22.384 1.14495L21.6839 2.40795C21.6081 2.54646 21.5899 2.70928 21.6334 2.8611C21.6768 3.01292 21.7784 3.1415 21.916 3.21895Z" fill="#BDBCE1"/>
<path d="M7.09099 26.1259C7.03734 26.0385 6.96215 25.9662 6.87259 25.916C6.78304 25.8659 6.68213 25.8396 6.57949 25.8396C6.47686 25.8396 6.37594 25.8659 6.28639 25.916C6.19684 25.9662 6.12165 26.0385 6.068 26.1259L5.02499 27.863C4.85968 28.1381 4.77036 28.4521 4.76615 28.773C4.76194 29.0939 4.84299 29.4102 5.00102 29.6895C5.15905 29.9688 5.38839 30.2012 5.66563 30.3629C5.94287 30.5246 6.25805 30.6098 6.57899 30.6098C6.89993 30.6098 7.21512 30.5246 7.49235 30.3629C7.76959 30.2012 7.99894 29.9688 8.15697 29.6895C8.315 29.4102 8.39605 29.0939 8.39183 28.773C8.38762 28.4521 8.2983 28.1381 8.13299 27.863L7.09099 26.1259ZM7.11899 29.101C7.07928 29.1737 7.02539 29.2377 6.96051 29.2893C6.89562 29.3408 6.82106 29.3788 6.74124 29.4011C6.66141 29.4233 6.57794 29.4293 6.49575 29.4188C6.41356 29.4082 6.33431 29.3813 6.26271 29.3395C6.19111 29.2978 6.1286 29.2422 6.07888 29.1759C6.02915 29.1096 5.99321 29.034 5.97319 28.9536C5.95318 28.8732 5.94948 28.7896 5.96233 28.7077C5.97518 28.6258 6.00431 28.5474 6.04799 28.477L6.57899 27.5919L7.11 28.477C7.16748 28.5708 7.19839 28.6786 7.19945 28.7886C7.20051 28.8987 7.17166 29.007 7.11599 29.102L7.11899 29.101Z" fill="#BDBCE1"/>
<path d="M14.383 26.1259C14.3293 26.0385 14.2541 25.9662 14.1646 25.916C14.075 25.8659 13.9741 25.8396 13.8715 25.8396C13.7689 25.8396 13.6679 25.8659 13.5784 25.916C13.4888 25.9662 13.4136 26.0385 13.36 26.1259L12.317 27.863C12.1517 28.1381 12.0624 28.4521 12.0581 28.773C12.0539 29.0939 12.135 29.4102 12.293 29.6895C12.451 29.9688 12.6804 30.2012 12.9576 30.3629C13.2349 30.5246 13.5501 30.6098 13.871 30.6098C14.1919 30.6098 14.5071 30.5246 14.7844 30.3629C15.0616 30.2012 15.2909 29.9688 15.449 29.6895C15.607 29.4102 15.688 29.0939 15.6838 28.773C15.6796 28.4521 15.5903 28.1381 15.425 27.863L14.383 26.1259ZM14.411 29.101C14.3713 29.1737 14.3174 29.2377 14.2525 29.2893C14.1876 29.3408 14.1131 29.3788 14.0332 29.4011C13.9534 29.4233 13.8699 29.4293 13.7877 29.4188C13.7055 29.4082 13.6263 29.3813 13.5547 29.3395C13.4831 29.2978 13.4206 29.2422 13.3709 29.1759C13.3211 29.1096 13.2852 29.034 13.2652 28.9536C13.2452 28.8732 13.2415 28.7896 13.2543 28.7077C13.2672 28.6258 13.2963 28.5474 13.34 28.477L13.871 27.5919L14.402 28.477C14.4599 28.5706 14.4914 28.6781 14.493 28.7882C14.4945 28.8983 14.4662 29.0067 14.411 29.102V29.101Z" fill="#BDBCE1"/>
<path d="M21.6771 26.1259C21.6234 26.0385 21.5482 25.9662 21.4587 25.916C21.3691 25.8659 21.2682 25.8396 21.1656 25.8396C21.0629 25.8396 20.962 25.8659 20.8724 25.916C20.7829 25.9662 20.7077 26.0385 20.6541 26.1259L19.6111 27.863C19.4457 28.1381 19.3564 28.4521 19.3522 28.773C19.348 29.0939 19.429 29.4102 19.5871 29.6895C19.7451 29.9688 19.9744 30.2012 20.2517 30.3629C20.5289 30.5246 20.8441 30.6098 21.165 30.6098C21.486 30.6098 21.8012 30.5246 22.0784 30.3629C22.3556 30.2012 22.585 29.9688 22.743 29.6895C22.901 29.4102 22.9821 29.0939 22.9779 28.773C22.9737 28.4521 22.8844 28.1381 22.7191 27.863L21.6771 26.1259ZM21.7051 29.101C21.6653 29.1737 21.6115 29.2377 21.5466 29.2893C21.4817 29.3408 21.4071 29.3788 21.3273 29.4011C21.2475 29.4233 21.164 29.4293 21.0818 29.4188C20.9996 29.4082 20.9204 29.3813 20.8488 29.3395C20.7772 29.2978 20.7147 29.2422 20.665 29.1759C20.6152 29.1096 20.5793 29.034 20.5593 28.9536C20.5393 28.8732 20.5356 28.7896 20.5484 28.7077C20.5613 28.6258 20.5904 28.5474 20.6341 28.477L21.165 27.5919L21.696 28.477C21.7543 28.5704 21.7861 28.6779 21.788 28.7879C21.79 28.898 21.762 29.0065 21.7071 29.102L21.7051 29.101Z" fill="#BDBCE1"/>
</svg>
