<svg width="24" height="24" viewBox="0 0 24 24" fill="none" xmlns="http://www.w3.org/2000/svg">
<path d="M12.417 23.367H10.95C10.3799 23.3659 9.83354 23.1389 9.43054 22.7358C9.02753 22.3326 8.80079 21.7861 8.8 21.216V20.716C8.29546 20.5548 7.8054 20.3514 7.335 20.108L6.983 20.46C6.78326 20.6597 6.54613 20.8182 6.28516 20.9263C6.02419 21.0344 5.74448 21.09 5.462 21.09C5.17952 21.09 4.89981 21.0344 4.63884 20.9263C4.37787 20.8182 4.14074 20.6597 3.941 20.46L2.9 19.426C2.70026 19.2263 2.54181 18.9891 2.43371 18.7282C2.32561 18.4672 2.26997 18.1875 2.26997 17.905C2.26997 17.6225 2.32561 17.3428 2.43371 17.0818C2.54181 16.8209 2.70026 16.5837 2.9 16.384L3.251 16.033C3.00757 15.5626 2.80418 15.0725 2.643 14.568H2.143C1.57415 14.5651 1.02955 14.3373 0.628055 13.9343C0.226563 13.5313 0.000784864 12.9859 0 12.417L0 10.95C0.00105806 10.3799 0.228052 9.83354 0.631242 9.43054C1.03443 9.02753 1.58094 8.80079 2.151 8.8H2.651C2.81219 8.29547 3.01558 7.8054 3.259 7.335L2.9 6.983C2.70026 6.78326 2.54181 6.54613 2.43371 6.28516C2.32561 6.02419 2.26997 5.74448 2.26997 5.462C2.26997 5.17952 2.32561 4.89981 2.43371 4.63884C2.54181 4.37787 2.70026 4.14074 2.9 3.941L3.94 2.9C4.13974 2.70026 4.37687 2.54181 4.63784 2.43371C4.89881 2.32561 5.17852 2.26997 5.461 2.26997C5.74348 2.26997 6.02319 2.32561 6.28416 2.43371C6.54513 2.54181 6.78226 2.70026 6.982 2.9L7.333 3.251C7.80432 3.01024 8.29505 2.80953 8.8 2.651V2.151C8.80079 1.58094 9.02753 1.03443 9.43054 0.631242C9.83354 0.228052 10.3799 0.00105806 10.95 0H12.416C12.9862 0.00079365 13.5329 0.227671 13.9361 0.63089C14.3393 1.03411 14.5662 1.58076 14.567 2.151V2.651C15.0715 2.81218 15.5616 3.01556 16.032 3.259L16.384 2.907C16.5837 2.70726 16.8209 2.54881 17.0818 2.44071C17.3428 2.33261 17.6225 2.27697 17.905 2.27697C18.1875 2.27697 18.4672 2.33261 18.7282 2.44071C18.9891 2.54881 19.2263 2.70726 19.426 2.907L20.463 3.94C20.6627 4.13974 20.8212 4.37687 20.9293 4.63784C21.0374 4.89881 21.093 5.17852 21.093 5.461C21.093 5.74348 21.0374 6.02319 20.9293 6.28416C20.8212 6.54513 20.6627 6.78226 20.463 6.982L20.112 7.333C20.3552 7.80408 20.5582 8.29481 20.719 8.8H21.219C21.7892 8.80079 22.3359 9.02767 22.7391 9.43089C23.1423 9.83411 23.3692 10.3808 23.37 10.951V12.418C23.3692 12.9882 23.1423 13.5349 22.7391 13.9381C22.3359 14.3413 21.7892 14.5682 21.219 14.569H20.719C20.5578 15.0735 20.3544 15.5636 20.111 16.034L20.463 16.386C20.6627 16.5857 20.8212 16.8229 20.9293 17.0838C21.0374 17.3448 21.093 17.6245 21.093 17.907C21.093 18.1895 21.0374 18.4692 20.9293 18.7302C20.8212 18.9911 20.6627 19.2283 20.463 19.428L19.426 20.465C19.2263 20.6647 18.9891 20.8232 18.7282 20.9313C18.4672 21.0394 18.1875 21.095 17.905 21.095C17.6225 21.095 17.3428 21.0394 17.0818 20.9313C16.8209 20.8232 16.5837 20.6647 16.384 20.465L16.033 20.114C15.5626 20.3574 15.0725 20.5608 14.568 20.722V21.222C14.5659 21.7913 14.3384 22.3365 13.9353 22.7385C13.5322 23.1405 12.9863 23.3665 12.417 23.367ZM7.563 18.674C8.21606 19.0602 8.92033 19.3525 9.655 19.542C9.80204 19.5799 9.93232 19.6656 10.0254 19.7856C10.1184 19.9056 10.1689 20.0531 10.169 20.205V21.216C10.1687 21.4235 10.2508 21.6226 10.3973 21.7696C10.5437 21.9166 10.7425 21.9995 10.95 22H12.416C12.6233 21.9997 12.8221 21.9173 12.9687 21.7707C13.1153 21.6241 13.1977 21.4253 13.198 21.218V20.2C13.1981 20.0481 13.2486 19.9006 13.3416 19.7806C13.4347 19.6606 13.565 19.5749 13.712 19.537C14.4467 19.3475 15.1509 19.0553 15.804 18.669C15.9348 18.5916 16.0877 18.5599 16.2385 18.5789C16.3893 18.5979 16.5295 18.6666 16.637 18.774L17.353 19.49C17.4256 19.5626 17.5118 19.6202 17.6067 19.6595C17.7016 19.6989 17.8033 19.7191 17.906 19.7191C18.0087 19.7191 18.1104 19.6989 18.2053 19.6595C18.3002 19.6202 18.3864 19.5626 18.459 19.49L19.5 18.458C19.5726 18.3854 19.6302 18.2992 19.6695 18.2043C19.7089 18.1094 19.7291 18.0077 19.7291 17.905C19.7291 17.8023 19.7089 17.7006 19.6695 17.6057C19.6302 17.5108 19.5726 17.4246 19.5 17.352L18.784 16.636C18.6773 16.5279 18.6097 16.3874 18.5916 16.2366C18.5735 16.0858 18.606 15.9333 18.684 15.803C19.0703 15.15 19.3625 14.4457 19.552 13.711C19.5898 13.567 19.6735 13.4392 19.7904 13.347C19.9073 13.2548 20.0511 13.2032 20.2 13.2H21.211C21.3143 13.2008 21.4168 13.1811 21.5125 13.1421C21.6082 13.1031 21.6952 13.0456 21.7685 12.9728C21.8419 12.9 21.9001 12.8134 21.9398 12.718C21.9796 12.6226 22 12.5203 22 12.417V10.95C21.9997 10.7427 21.9173 10.5439 21.7707 10.3973C21.6241 10.2507 21.4253 10.1683 21.218 10.168H20.2C20.0483 10.168 19.9009 10.1176 19.7809 10.0248C19.6609 9.93191 19.5751 9.80186 19.537 9.655C19.3474 8.92033 19.0552 8.21606 18.669 7.563C18.591 7.43271 18.5585 7.28018 18.5766 7.1294C18.5947 6.97861 18.6623 6.83812 18.769 6.73L19.485 6.014C19.5576 5.94138 19.6152 5.85517 19.6545 5.76029C19.6939 5.6654 19.7141 5.5637 19.7141 5.461C19.7141 5.3583 19.6939 5.2566 19.6545 5.16171C19.6152 5.06683 19.5576 4.98062 19.485 4.908L18.458 3.872C18.3854 3.79937 18.2992 3.74176 18.2043 3.70245C18.1094 3.66315 18.0077 3.64292 17.905 3.64292C17.8023 3.64292 17.7006 3.66315 17.6057 3.70245C17.5108 3.74176 17.4246 3.79937 17.352 3.872L16.636 4.588C16.5285 4.69544 16.3883 4.76407 16.2375 4.78308C16.0867 4.80209 15.9338 4.7704 15.803 4.693C15.1499 4.30675 14.4457 4.01454 13.711 3.825C13.564 3.78709 13.4337 3.7014 13.3406 3.58139C13.2476 3.46138 13.1971 3.31385 13.197 3.162V2.151C13.1967 1.94368 13.1143 1.74493 12.9677 1.59833C12.8211 1.45174 12.6223 1.36926 12.415 1.369H10.95C10.7427 1.36926 10.5439 1.45174 10.3973 1.59833C10.2507 1.74493 10.1683 1.94368 10.168 2.151V3.162C10.1679 3.31385 10.1174 3.46138 10.0244 3.58139C9.93132 3.7014 9.80104 3.78709 9.654 3.825C8.91933 4.01454 8.21506 4.30675 7.562 4.693C7.43118 4.7704 7.27834 4.80209 7.12753 4.78308C6.97672 4.76407 6.83652 4.69544 6.729 4.588L6.013 3.872C5.94038 3.79937 5.85417 3.74176 5.75929 3.70245C5.6644 3.66315 5.5627 3.64292 5.46 3.64292C5.3573 3.64292 5.2556 3.66315 5.16071 3.70245C5.06583 3.74176 4.97962 3.79937 4.907 3.872L3.872 4.909C3.79937 4.98162 3.74176 5.06783 3.70245 5.16271C3.66315 5.2576 3.64292 5.3593 3.64292 5.462C3.64292 5.5647 3.66315 5.6664 3.70245 5.76129C3.74176 5.85617 3.79937 5.94238 3.872 6.015L4.588 6.731C4.69544 6.83852 4.76407 6.97872 4.78308 7.12953C4.80209 7.28033 4.7704 7.43318 4.693 7.564C4.30674 8.21705 4.01453 8.92132 3.825 9.656C3.7869 9.80286 3.70113 9.93291 3.58114 10.0258C3.46114 10.1186 3.31372 10.169 3.162 10.169H2.151C1.94368 10.1693 1.74493 10.2517 1.59833 10.3983C1.45174 10.5449 1.36926 10.7437 1.369 10.951V12.418C1.36926 12.6253 1.45174 12.8241 1.59833 12.9707C1.74493 13.1173 1.94368 13.1997 2.151 13.2H3.162C3.31372 13.2 3.46114 13.2504 3.58114 13.3432C3.70113 13.4361 3.7869 13.5661 3.825 13.713C4.01498 14.4459 4.30718 15.1485 4.693 15.8C4.77103 15.9303 4.80355 16.0828 4.78545 16.2336C4.76735 16.3844 4.69965 16.5249 4.593 16.633L3.877 17.349C3.80437 17.4216 3.74676 17.5078 3.70745 17.6027C3.66815 17.6976 3.64791 17.7993 3.64791 17.902C3.64791 18.0047 3.66815 18.1064 3.70745 18.2013C3.74676 18.2962 3.80437 18.3824 3.877 18.455L4.914 19.492C4.98662 19.5646 5.07283 19.6222 5.16771 19.6615C5.2626 19.7009 5.3643 19.7211 5.467 19.7211C5.5697 19.7211 5.6714 19.7009 5.76629 19.6615C5.86117 19.6222 5.94738 19.5646 6.02 19.492L6.736 18.776C6.84439 18.6698 6.98484 18.6024 7.13549 18.5843C7.28615 18.5662 7.43856 18.5985 7.569 18.676L7.563 18.674Z" fill="#2C2C2C"/>
<path d="M11.683 16.767C10.6775 16.767 9.69454 16.4688 8.85848 15.9102C8.02242 15.3516 7.37079 14.5575 6.986 13.6286C6.6012 12.6996 6.50052 11.6774 6.69669 10.6912C6.89286 9.70495 7.37705 8.79907 8.08806 8.08806C8.79907 7.37705 9.70495 6.89286 10.6912 6.69669C11.6774 6.50052 12.6996 6.6012 13.6286 6.986C14.5575 7.37079 15.3516 8.02242 15.9102 8.85848C16.4688 9.69454 16.767 10.6775 16.767 11.683C16.767 13.0314 16.2314 14.3245 15.2779 15.2779C14.3245 16.2314 13.0314 16.767 11.683 16.767ZM11.683 7.967C10.9482 7.967 10.23 8.18487 9.61905 8.59308C9.00812 9.00129 8.53196 9.58151 8.25078 10.2603C7.9696 10.9392 7.89604 11.6861 8.03939 12.4068C8.18273 13.1274 8.53654 13.7894 9.0561 14.3089C9.57565 14.8285 10.2376 15.1823 10.9582 15.3256C11.6789 15.469 12.4258 15.3954 13.1047 15.1142C13.7835 14.833 14.3637 14.3569 14.7719 13.7459C15.1801 13.135 15.398 12.4168 15.398 11.682C15.398 10.6967 15.0066 9.75179 14.3099 9.05509C13.6132 8.35839 12.6683 7.967 11.683 7.967Z" fill="#2C2C2C"/>
</svg>
