<svg width="20" height="31" viewBox="0 0 20 31" fill="none" xmlns="http://www.w3.org/2000/svg">
<path d="M15.1771 6.67603C13.9026 6.67637 12.6442 6.9606 11.4933 7.50806C10.3424 8.05553 9.32792 8.85249 8.52352 9.84103C7.71912 10.8296 7.14503 11.9849 6.84293 13.223C6.54084 14.4612 6.51834 15.7511 6.77707 16.999C6.82424 17.1375 6.92039 17.254 7.04745 17.3266C7.1745 17.3992 7.3237 17.4228 7.46696 17.3931C7.61023 17.3634 7.7377 17.2823 7.82538 17.1652C7.91306 17.048 7.95492 16.9029 7.94307 16.757C7.57462 14.9917 7.86483 13.1526 8.75896 11.5866C9.65308 10.0205 11.0893 8.83571 12.7968 8.25565C14.5043 7.67559 16.3651 7.74035 18.0281 8.43771C19.6911 9.13507 21.0416 10.4168 21.8246 12.0413C22.6077 13.6657 22.7694 15.5205 22.2791 17.2559C21.7888 18.9914 20.6805 20.4874 19.1632 21.4619C17.6459 22.4365 15.8244 22.8221 14.0423 22.5462C12.2602 22.2703 10.6406 21.3518 9.48907 19.964C9.38241 19.8638 9.2428 19.8061 9.09653 19.8016C8.95026 19.7972 8.80741 19.8463 8.69485 19.9398C8.58229 20.0333 8.50779 20.1648 8.48536 20.3094C8.46293 20.454 8.49412 20.6018 8.57307 20.725C9.49488 21.836 10.6823 22.6962 12.0252 23.2259C13.3681 23.7556 14.823 23.9377 16.255 23.7553C17.687 23.5728 19.0498 23.0318 20.2169 22.1823C21.3841 21.3328 22.3179 20.2023 22.9317 18.8957C23.5455 17.5891 23.8195 16.1487 23.7282 14.708C23.637 13.2673 23.1834 11.8729 22.4096 10.6542C21.6359 9.43555 20.5669 8.43196 19.3018 7.73652C18.0368 7.04108 16.6167 6.67631 15.1731 6.67603H15.1771Z" fill="#BDBCE1"/>
<path d="M15.177 0C15.0179 0 14.8653 0.0632141 14.7528 0.175736C14.6402 0.288258 14.577 0.44087 14.577 0.6V4.48C14.5949 4.62533 14.6654 4.7591 14.775 4.8561C14.8847 4.95311 15.0261 5.00665 15.1725 5.00665C15.319 5.00665 15.4603 4.95311 15.57 4.8561C15.6797 4.7591 15.7501 4.62533 15.768 4.48V0.6C15.768 0.442417 15.7061 0.291153 15.5955 0.178886C15.4849 0.0666198 15.3346 0.00236374 15.177 0V0Z" fill="#BDBCE1"/>
<path d="M15.177 25.429C15.0179 25.429 14.8653 25.4922 14.7528 25.6048C14.6402 25.7173 14.577 25.8699 14.577 26.029V29.909C14.5949 30.0544 14.6654 30.1881 14.775 30.2851C14.8847 30.3821 15.0261 30.4357 15.1725 30.4357C15.319 30.4357 15.4603 30.3821 15.57 30.2851C15.6797 30.1881 15.7501 30.0544 15.768 29.909V26.029C15.768 25.8714 15.7061 25.7202 15.5955 25.6079C15.4849 25.4956 15.3346 25.4314 15.177 25.429Z" fill="#BDBCE1"/>
<path d="M4.40302 14.65H0.527019C0.38169 14.6679 0.247923 14.7384 0.150918 14.848C0.0539125 14.9577 0.000366211 15.0991 0.000366211 15.2455C0.000366211 15.392 0.0539125 15.5333 0.150918 15.643C0.247923 15.7527 0.38169 15.8231 0.527019 15.841H4.40702C4.55235 15.8231 4.68612 15.7527 4.78312 15.643C4.88013 15.5333 4.93367 15.392 4.93367 15.2455C4.93367 15.0991 4.88013 14.9577 4.78312 14.848C4.68612 14.7384 4.55235 14.6679 4.40702 14.65H4.40302Z" fill="#BDBCE1"/>
<path d="M7.97903 22.448C7.86678 22.3375 7.71556 22.2755 7.55802 22.2755C7.40049 22.2755 7.24927 22.3375 7.13703 22.448L4.39302 25.192C4.32589 25.2443 4.27063 25.3102 4.23091 25.3854C4.1912 25.4606 4.16793 25.5434 4.16265 25.6283C4.15738 25.7132 4.17021 25.7983 4.20031 25.8778C4.23041 25.9574 4.27709 26.0297 4.33724 26.0898C4.39739 26.15 4.46964 26.1966 4.5492 26.2267C4.62876 26.2568 4.71382 26.2697 4.79872 26.2644C4.88362 26.2591 4.96642 26.2359 5.04164 26.1961C5.11687 26.1564 5.18279 26.1012 5.23503 26.034L7.97903 23.29C8.08957 23.1778 8.15152 23.0266 8.15152 22.869C8.15152 22.7115 8.08957 22.5603 7.97903 22.448Z" fill="#BDBCE1"/>
<path d="M7.97903 7.20903L5.23503 4.46602C5.18279 4.39889 5.11687 4.34363 5.04164 4.30391C4.96642 4.2642 4.88362 4.24093 4.79872 4.23565C4.71382 4.23038 4.62876 4.24321 4.5492 4.27331C4.46964 4.30341 4.39739 4.35009 4.33724 4.41024C4.27709 4.47039 4.23041 4.54263 4.20031 4.6222C4.17021 4.70176 4.15738 4.78681 4.16265 4.87171C4.16793 4.95662 4.1912 5.03942 4.23091 5.11464C4.27063 5.18987 4.32589 5.25578 4.39302 5.30802L7.13703 8.05203C7.25246 8.14185 7.39673 8.18641 7.54271 8.17734C7.6887 8.16827 7.82634 8.10619 7.92977 8.00277C8.03319 7.89934 8.09527 7.76169 8.10434 7.61571C8.11341 7.46973 8.06885 7.32546 7.97903 7.21003V7.20903Z" fill="#BDBCE1"/>
<path d="M8.45104 18.38C8.35317 18.2813 8.22408 18.2197 8.08581 18.2056C7.94754 18.1915 7.80867 18.2259 7.69293 18.3028C7.57718 18.3798 7.49172 18.4945 7.45116 18.6274C7.41061 18.7603 7.41746 18.9032 7.47054 19.0317C7.52363 19.1601 7.61966 19.2662 7.74223 19.3317C7.86481 19.3972 8.00633 19.4181 8.14262 19.3909C8.27891 19.3636 8.40152 19.2899 8.4895 19.1823C8.57749 19.0748 8.6254 18.94 8.62505 18.801C8.62465 18.6432 8.56213 18.492 8.45104 18.38Z" fill="#BDBCE1"/>
<path d="M20.986 14.845C20.8941 13.5393 20.3658 12.3023 19.486 11.333C19.375 11.2386 19.2334 11.1879 19.0876 11.1903C18.9419 11.1927 18.802 11.248 18.6941 11.346C18.5862 11.444 18.5176 11.5779 18.5012 11.7227C18.4849 11.8676 18.5218 12.0134 18.6051 12.133C19.3047 12.9039 19.7249 13.8876 19.7981 14.926C19.8093 15.076 19.8765 15.2163 19.9864 15.3191C20.0962 15.4219 20.2406 15.4797 20.391 15.481H20.4321C20.5895 15.4692 20.7359 15.3959 20.8396 15.2768C20.9434 15.1577 20.996 15.0026 20.986 14.845Z" fill="#BDBCE1"/>
<path d="M20.825 16.726C20.7269 16.6275 20.5977 16.5662 20.4594 16.5524C20.3212 16.5387 20.1824 16.5734 20.0668 16.6505C19.9513 16.7277 19.8661 16.8426 19.8258 16.9756C19.7855 17.1086 19.7927 17.2515 19.846 17.3798C19.8993 17.5081 19.9956 17.614 20.1183 17.6792C20.2409 17.7445 20.3825 17.7651 20.5187 17.7376C20.6549 17.7101 20.7774 17.6363 20.8652 17.5285C20.953 17.4208 21.0006 17.2859 21 17.147C20.9994 16.9891 20.9365 16.8378 20.825 16.726Z" fill="#BDBCE1"/>
</svg>
