<svg width="17" height="20" viewBox="0 0 17 20" fill="none" xmlns="http://www.w3.org/2000/svg">
<path d="M6.43499 16.573C5.76224 16.3633 5.14936 15.9959 4.64743 15.5013C4.1455 15.0067 3.76905 14.3994 3.54948 13.7298C3.32991 13.0602 3.27357 12.3478 3.38516 11.6521C3.49675 10.9563 3.77304 10.2973 4.19099 9.72998C4.2039 9.71231 4.21527 9.69358 4.22499 9.67398C4.26833 9.58891 4.27777 9.49056 4.25143 9.3988C4.22508 9.30704 4.1649 9.2287 4.08303 9.17958C4.00116 9.13046 3.90371 9.11423 3.81035 9.13417C3.71698 9.1541 3.63466 9.20871 3.57999 9.28698C3.09295 9.95119 2.77147 10.722 2.64229 11.5355C2.51312 12.3489 2.57996 13.1815 2.83727 13.9639C3.09459 14.7463 3.53494 15.456 4.12173 16.034C4.70851 16.6119 5.42478 17.0415 6.21099 17.287C6.25827 17.3017 6.30798 17.3069 6.35728 17.3024C6.40659 17.2979 6.45452 17.2838 6.49835 17.2607C6.54218 17.2377 6.58104 17.2063 6.61272 17.1682C6.6444 17.1302 6.66828 17.0863 6.68299 17.039C6.6977 16.9917 6.70295 16.942 6.69845 16.8927C6.69394 16.8434 6.67977 16.7954 6.65674 16.7516C6.63372 16.7078 6.60228 16.6689 6.56423 16.6372C6.52618 16.6056 6.48226 16.5817 6.43499 16.567V16.573Z" fill="#836EFF"/>
<path d="M16.1 8.81199C16.1018 8.10037 15.875 7.40698 15.453 6.83399L13.066 3.28999C13.0315 3.23884 12.9849 3.19695 12.9304 3.16799C12.8759 3.13902 12.8152 3.12388 12.7535 3.12388C12.6918 3.12388 12.631 3.13902 12.5765 3.16799C12.522 3.19695 12.4755 3.23884 12.441 3.28999L11.435 4.78299L8.32398 0.165992C8.28946 0.114844 8.24291 0.0729498 8.18843 0.0439869C8.13394 0.015024 8.07318 -0.00012207 8.01148 -0.00012207C7.94977 -0.00012207 7.88901 0.015024 7.83452 0.0439869C7.78003 0.0729498 7.73349 0.114844 7.69898 0.165992L2.36098 8.09099C1.68067 9.01543 1.23766 10.0927 1.07082 11.2283C0.903984 12.3639 1.01842 13.5231 1.40409 14.6041C1.78975 15.6852 2.43485 16.655 3.28279 17.4286C4.13072 18.2022 5.15556 18.7558 6.26737 19.0409C7.37917 19.326 8.54396 19.3339 9.65952 19.0638C10.7751 18.7937 11.8073 18.254 12.6656 17.4919C13.5239 16.7298 14.182 15.7688 14.5822 14.693C14.9824 13.6173 15.1125 12.4597 14.961 11.322C15.3187 11.0089 15.6053 10.623 15.8017 10.1901C15.9982 9.75721 16.0999 9.28736 16.1 8.81199ZM12.753 4.17599L14.826 7.25499L14.839 7.27399C15.1237 7.66013 15.2957 8.11769 15.3359 8.59576C15.376 9.07383 15.2828 9.55368 15.0665 9.98191C14.8502 10.4101 14.5193 10.77 14.1107 11.0214C13.7021 11.2727 13.2317 11.4058 12.752 11.4058C12.2722 11.4058 11.8019 11.2727 11.3932 11.0214C10.9846 10.77 10.6538 10.4101 10.4375 9.98191C10.2212 9.55368 10.1279 9.07383 10.1681 8.59576C10.2082 8.11769 10.3803 7.66013 10.665 7.27399L10.678 7.25499L11.747 5.66999L11.753 5.66099L12.753 4.17599ZM14.267 12.244C14.2663 13.2332 14.0312 14.2081 13.581 15.0889C13.1307 15.9697 12.4781 16.7312 11.6767 17.311C10.8752 17.8908 9.94778 18.2724 8.97037 18.4245C7.99295 18.5766 6.99339 18.4948 6.05367 18.186C5.11394 17.8771 4.2608 17.3499 3.5642 16.6476C2.8676 15.9453 2.34737 15.0879 2.04618 14.1457C1.74499 13.2035 1.6714 12.2033 1.83146 11.2271C1.99151 10.251 2.38066 9.32668 2.96697 8.52999L2.97997 8.51099L8.00797 1.05199L10.976 5.45799L10.05 6.83599C9.60563 7.44174 9.37805 8.17941 9.4039 8.93022C9.42975 9.68103 9.70752 10.4013 10.1925 10.975C10.6774 11.5488 11.3414 11.9427 12.0774 12.0932C12.8134 12.2438 13.5787 12.1422 14.25 11.805C14.26 11.9503 14.2653 12.098 14.266 12.248L14.267 12.244Z" fill="#836EFF"/>
<path d="M11.423 8.72C11.4224 8.53954 11.4599 8.36097 11.533 8.196C11.5716 8.10496 11.5729 8.00238 11.5366 7.91038C11.5003 7.81839 11.4293 7.74435 11.3389 7.70421C11.2486 7.66406 11.146 7.66104 11.0534 7.6958C10.9609 7.73055 10.8856 7.8003 10.844 7.89C10.6485 8.3308 10.6149 8.82642 10.749 9.28959C10.8831 9.75276 11.1763 10.1538 11.577 10.422C11.6601 10.4776 11.7619 10.4978 11.86 10.4783C11.9086 10.4687 11.9548 10.4495 11.9959 10.422C12.0371 10.3945 12.0725 10.3592 12.1 10.318C12.1275 10.2768 12.1466 10.2306 12.1563 10.1821C12.1659 10.1335 12.1659 10.0835 12.1563 10.035C12.1466 9.98639 12.1275 9.9402 12.1 9.89903C12.0725 9.85786 12.0371 9.82251 11.996 9.795C11.8192 9.67692 11.6743 9.51701 11.5742 9.32948C11.474 9.14195 11.4217 8.93259 11.422 8.72H11.423Z" fill="#836EFF"/>
<path d="M7.83293 17.095C7.80231 17.0175 7.74705 16.9522 7.67565 16.9091C7.60424 16.8661 7.52066 16.8477 7.43779 16.8569C7.35493 16.866 7.27737 16.9022 7.21707 16.9597C7.15678 17.0173 7.11708 17.0931 7.10411 17.1755C7.09114 17.2578 7.10563 17.3422 7.14531 17.4155C7.185 17.4888 7.24769 17.547 7.32373 17.5812C7.39978 17.6154 7.48494 17.6236 7.56612 17.6046C7.64729 17.5856 7.71997 17.5404 7.77294 17.476C7.81631 17.4238 7.84479 17.3608 7.85535 17.2938C7.86591 17.2267 7.85816 17.158 7.83293 17.095Z" fill="#836EFF"/>
<path d="M12.5549 10.766C12.6249 10.8136 12.7089 10.8363 12.7933 10.8307C12.8778 10.825 12.9579 10.7912 13.0209 10.7347C13.0839 10.6782 13.1262 10.6023 13.1411 10.5189C13.1559 10.4356 13.1424 10.3497 13.1028 10.2749C13.0631 10.2002 12.9995 10.1408 12.9222 10.1063C12.8449 10.0719 12.7583 10.0643 12.6762 10.0848C12.5941 10.1052 12.5212 10.1526 12.4691 10.2194C12.4171 10.2861 12.3888 10.3683 12.3889 10.453C12.3888 10.5148 12.4039 10.5756 12.4329 10.6302C12.4618 10.6848 12.5037 10.7314 12.5549 10.766Z" fill="#836EFF"/>
</svg>
