<svg width="20" height="17" viewBox="0 0 20 17" fill="none" xmlns="http://www.w3.org/2000/svg">
<path d="M15.6579 0C14.7202 0.00147053 13.8108 0.321651 13.0789 0.908001C13.0122 0.952847 12.9556 1.01107 12.9126 1.07897C12.8696 1.14687 12.8411 1.22297 12.8291 1.30244C12.8171 1.38191 12.8217 1.46301 12.8426 1.5406C12.8636 1.6182 12.9005 1.69059 12.9509 1.75318C13.0013 1.81577 13.0642 1.8672 13.1355 1.90421C13.2069 1.94121 13.2851 1.96298 13.3654 1.96814C13.4456 1.97329 13.526 1.96172 13.6015 1.93415C13.677 1.90658 13.7459 1.86363 13.8039 1.808C14.1734 1.5116 14.6086 1.30807 15.0729 1.21446C15.5372 1.12085 16.0172 1.13989 16.4727 1.26998C16.9282 1.40008 17.3458 1.63744 17.6907 1.96218C18.0355 2.28691 18.2975 2.68957 18.4547 3.13641C18.6119 3.58324 18.6597 4.06124 18.5941 4.53036C18.5285 4.99948 18.3515 5.44605 18.0778 5.83265C17.8041 6.21925 17.4417 6.53462 17.021 6.75235C16.6004 6.97007 16.1336 7.08379 15.6599 7.084H4.79494C4.64994 7.09607 4.51479 7.1622 4.41627 7.26926C4.31775 7.37633 4.26306 7.51651 4.26306 7.662C4.26306 7.8075 4.31775 7.94768 4.41627 8.05474C4.51479 8.1618 4.64994 8.22793 4.79494 8.24H15.6599C16.7526 8.24 17.8006 7.80593 18.5732 7.03328C19.3459 6.26063 19.7799 5.21269 19.7799 4.12C19.7799 3.02731 19.3459 1.97937 18.5732 1.20672C17.8006 0.434072 16.7526 0 15.6599 0H15.6579Z" fill="#836EFF"/>
<path d="M3.68495 5.93201H9.85795C9.93789 5.93867 10.0184 5.92866 10.0942 5.90264C10.1701 5.87661 10.2398 5.83513 10.2988 5.78081C10.3578 5.72649 10.405 5.66052 10.4372 5.58705C10.4694 5.51359 10.4861 5.43423 10.4861 5.35401C10.4861 5.27378 10.4694 5.19444 10.4372 5.12097C10.405 5.04751 10.3578 4.98154 10.2988 4.92722C10.2398 4.8729 10.1701 4.8314 10.0942 4.80538C10.0184 4.77935 9.93789 4.76936 9.85795 4.77602H3.68495C3.53996 4.78809 3.40479 4.85421 3.30627 4.96128C3.20775 5.06834 3.15308 5.20851 3.15308 5.35401C3.15308 5.4995 3.20775 5.63969 3.30627 5.74675C3.40479 5.85382 3.53996 5.91994 3.68495 5.93201Z" fill="#836EFF"/>
<path d="M9.69693 9.39902H0.633926C0.488933 9.41109 0.353773 9.4772 0.255253 9.58426C0.156733 9.69132 0.102051 9.83153 0.102051 9.97702C0.102051 10.1225 0.156733 10.2627 0.255253 10.3698C0.353773 10.4768 0.488933 10.543 0.633926 10.555H9.69693C10.0768 10.5551 10.4512 10.6462 10.7886 10.8208C11.126 10.9953 11.4167 11.2482 11.6363 11.5582C11.8558 11.8683 11.9979 12.2264 12.0505 12.6026C12.1032 12.9789 12.0649 13.3623 11.9388 13.7206C11.8128 14.079 11.6027 14.402 11.3261 14.6624C11.0496 14.9229 10.7146 15.1133 10.3493 15.2176C9.98402 15.3219 9.59904 15.3372 9.22663 15.2621C8.85422 15.187 8.50524 15.0238 8.20893 14.786C8.15091 14.7304 8.08196 14.6874 8.00646 14.6599C7.93096 14.6323 7.85055 14.6207 7.77034 14.6259C7.69013 14.631 7.61187 14.6528 7.54051 14.6898C7.46916 14.7268 7.40628 14.7782 7.35586 14.8408C7.30544 14.9034 7.26858 14.9758 7.24761 15.0534C7.22665 15.131 7.22204 15.2121 7.23408 15.2916C7.24612 15.371 7.27455 15.4471 7.31756 15.515C7.36057 15.5829 7.41722 15.6412 7.48393 15.686C7.92429 16.0395 8.44299 16.2824 8.99655 16.3941C9.5501 16.5059 10.1224 16.4833 10.6654 16.3283C11.2085 16.1733 11.7064 15.8904 12.1176 15.5033C12.5287 15.1162 12.8411 14.6361 13.0285 14.1034C13.2159 13.5707 13.2729 13.0008 13.1947 12.4415C13.1164 11.8823 12.9053 11.3499 12.5789 10.889C12.2525 10.4282 11.8204 10.0523 11.3187 9.79288C10.8171 9.53345 10.2606 9.39804 9.69593 9.39801L9.69693 9.39902Z" fill="#836EFF"/>
<path d="M0.634961 5.93201H1.41196C1.49191 5.93867 1.57236 5.92866 1.64825 5.90264C1.72413 5.87661 1.79379 5.83513 1.85282 5.78081C1.91186 5.72649 1.95898 5.66052 1.99121 5.58705C2.02344 5.51359 2.04009 5.43423 2.04009 5.35401C2.04009 5.27378 2.02344 5.19444 1.99121 5.12097C1.95898 5.04751 1.91186 4.98154 1.85282 4.92722C1.79379 4.8729 1.72413 4.8314 1.64825 4.80538C1.57236 4.77935 1.49191 4.76936 1.41196 4.77602H0.634961C0.555015 4.76936 0.474557 4.77935 0.398673 4.80538C0.322789 4.8314 0.25313 4.8729 0.194097 4.92722C0.135065 4.98154 0.0879429 5.04751 0.0557105 5.12097C0.0234781 5.19444 0.00683594 5.27378 0.00683594 5.35401C0.00683594 5.43423 0.0234781 5.51359 0.0557105 5.58705C0.0879429 5.66052 0.135065 5.72649 0.194097 5.78081C0.25313 5.83513 0.322789 5.87661 0.398673 5.90264C0.474557 5.92866 0.555015 5.93867 0.634961 5.93201Z" fill="#836EFF"/>
<path d="M7.6049 12.279C7.6049 12.1252 7.5438 11.9777 7.43503 11.8689C7.32626 11.7601 7.17874 11.699 7.02491 11.699H3.5619C3.41691 11.7111 3.28175 11.7772 3.18324 11.8843C3.08472 11.9913 3.03003 12.1315 3.03003 12.277C3.03003 12.4225 3.08472 12.5627 3.18324 12.6697C3.28175 12.7768 3.41691 12.8429 3.5619 12.855H7.02891C7.18135 12.854 7.32725 12.7929 7.43504 12.6852C7.54284 12.5774 7.60386 12.4314 7.6049 12.279Z" fill="#836EFF"/>
</svg>
